<svg width="240" height="234" viewBox="0 0 240 234" fill="none" xmlns="http://www.w3.org/2000/svg">
<g clip-path="url(#clip0_672_6)">
<path d="M42.5 0H197.5C221 0 240 19 240 42.5V191.5C240 215 221 234 197.5 234H42.5C19 234 0 215 0 191.5V42.5C0 19 19 0 42.5 0Z" fill="#00005B"/>
<path d="M57 164V60.9998C57 60.2998 57.3 59.8998 58 59.8998C59.7 59.8998 61.3 59.8998 63.6 59.7998C66 59.6998 68.5 59.6998 71.2 59.5998C73.9 59.4998 76.8 59.4998 79.9 59.3998C83 59.2998 86 59.2998 89 59.2998C97.2 59.2998 104 60.2998 109.6 62.3998C114.6 64.0998 119.2 66.8998 123 70.5998C126.2 73.7998 128.7 77.6998 130.3 81.9998C131.8 86.1998 132.6 90.4998 132.6 94.9998C132.6 103.6 130.6 110.7 126.6 116.3C122.6 121.9 117 126.1 110.5 128.5C103.7 131 96.2 131.9 88 131.9C85.6 131.9 84 131.9 83 131.8C82 131.7 80.6 131.7 78.7 131.7V163.8C78.8 164.5 78.3 165.1 77.6 165.2H77.2H58.2C57.4 165.2 57 164.8 57 163.9V164ZM78.8 79.2998V112.9C80.2 113 81.5 113.1 82.7 113.1H88C91.9 113.1 95.8 112.5 99.5 111.3C102.7 110.4 105.5 108.5 107.7 106C109.8 103.5 110.8 100.1 110.8 95.6998C110.9 92.5998 110.1 89.4998 108.5 86.7998C106.8 84.1998 104.4 82.1998 101.5 81.0998C97.8 79.5998 93.8 78.9998 89.7 79.0998C87.1 79.0998 84.8 79.0998 82.9 79.1998C80.9 79.0998 79.5 79.1998 78.8 79.2998Z" fill="#9999FF"/>
<path d="M147 85.2H164.5C165.5 85.2 166.3 85.9 166.6 86.8C166.9 87.6 167.1 88.4 167.2 89.3C167.4 90.3 167.6 91.4 167.7 92.4C167.8 93.5 167.9 94.7 167.9 96C170.9 92.5 174.5 89.6 178.6 87.4C183.2 84.8 188.5 83.5 193.8 83.5C194.5 83.4 195.1 83.9 195.2 84.6V85V104.5C195.2 105.3 194.7 105.6 193.6 105.6C190 105.5 186.3 105.8 182.8 106.6C179.9 107.2 177.1 108.1 174.4 109.3C172.5 110.2 170.7 111.4 169.3 113V164C169.3 165 168.9 165.4 168 165.4H148.3C147.5 165.5 146.8 165 146.7 164.2V163.8V108.4C146.7 106 146.7 103.5 146.6 100.9C146.5 98.3 146.5 95.7 146.4 93.1C146.4 90.8 146.2 88.6 146 86.3C145.9 85.8 146.2 85.3 146.7 85.2C146.7 85.1 146.9 85.1 147 85.2Z" fill="#9999FF"/>
</g>
<defs>
<clipPath id="clip0_672_6">
<rect width="240" height="234" fill="white"/>
</clipPath>
</defs>
</svg>
