<svg width="294" height="262" viewBox="0 0 294 262" fill="none" xmlns="http://www.w3.org/2000/svg">
<path d="M147.004 156.661C161.328 156.661 172.94 145.049 172.94 130.725C172.94 116.401 161.328 104.79 147.004 104.79C132.68 104.79 121.068 116.401 121.068 130.725C121.068 145.049 132.68 156.661 147.004 156.661Z" fill="#2EC5E0"/>
<path d="M147.004 77.9971C181.82 77.9971 214.167 82.994 238.551 91.3849C267.932 101.499 286 116.832 286 130.717C286 145.185 266.852 161.478 235.303 171.927C211.45 179.829 180.054 183.96 147.004 183.96C113.115 183.96 81.0334 180.086 56.9061 171.841C26.3848 161.41 8 144.911 8 130.717C8 116.944 25.2534 101.73 54.2233 91.6335C78.7021 83.1054 111.846 77.9971 147.004 77.9971Z" stroke="#2EC5E0" stroke-width="16" stroke-miterlimit="10"/>
<path d="M101.106 104.516C118.497 74.3543 138.99 48.8299 158.446 31.9022C181.888 11.5032 204.198 3.51505 216.223 10.449C228.754 17.6743 233.305 42.4016 226.594 74.9628C221.52 99.5787 209.418 128.831 192.901 157.467C175.974 186.823 156.586 212.681 137.396 229.463C113.114 250.694 89.6295 258.373 77.3387 251.285C65.4079 244.403 60.8482 221.861 66.565 191.717C71.3991 166.227 83.5356 134.968 101.106 104.516Z" stroke="#2EC5E0" stroke-width="16" stroke-miterlimit="10"/>
<path d="M101.149 157.527C83.7072 127.392 71.8278 96.8959 66.8738 71.5858C60.9084 41.0902 65.1253 17.7686 77.1419 10.8175C89.6641 3.56645 113.354 11.9746 138.21 34.0449C157.006 50.7326 176.3 75.8284 192.859 104.438C209.838 133.768 222.566 163.475 227.511 188.477C233.777 220.121 228.703 244.3 216.42 251.405C204.498 258.305 182.694 251.002 159.432 230.989C139.787 214.078 118.763 187.954 101.149 157.527Z" stroke="#2EC5E0" stroke-width="16" stroke-miterlimit="10"/>
</svg>
