<svg width="536" height="501" viewBox="0 0 536 501" fill="none" xmlns="http://www.w3.org/2000/svg">
<path d="M208.009 371.017C204.708 370.829 201.71 372.248 199.462 374.437C197.214 376.625 195.982 379.515 196 382.585C196.054 388.895 201.425 393.999 208.009 393.999C211.167 394.042 214.272 392.776 216.538 390.579C218.786 388.39 220.018 385.5 220 382.431C219.946 376.121 214.575 371.017 208.009 371.017Z" fill="white"/>
<path d="M244.3 451.034L244.297 451.035L173.695 451.524C173.695 451.524 173.677 451.524 173.66 451.524C173.637 451.524 173.617 451.511 173.594 451.511L172.939 451.516L167 501L256 500.388L249.375 451L244.3 451.034Z" fill="white"/>
<path d="M234.346 316.681C289.905 303.974 330 254.293 330 197.446C330 129.93 274.594 75 206.5 75C138.406 75 83 129.93 83 197.446C83 254.994 123.698 304.806 180.093 317C189.153 305.929 199.781 288.64 201.984 266.564C199.324 264.942 197.444 262.172 197.421 258.847C197.385 253.717 201.551 249.53 206.725 249.494C211.899 249.459 216.123 253.589 216.158 258.719C216.181 262.04 214.344 264.832 211.713 266.492C214.224 288.574 225.123 305.736 234.346 316.681ZM214 145L202.5 111.5C203.211 110.102 183.931 116.079 185.5 116C187.032 115.927 186.154 175.175 187 176.5L247 218C248.165 219.829 278.345 213.447 276.69 214.857C275.868 215.555 263.517 176.5 262.5 176.5C261.47 176.5 252.834 177.217 252 176.5C230.585 157.959 200.047 131.272 179 145C177.321 146.082 158.59 154.5 166.5 161.5C165.017 160.187 213.105 146.762 214 145ZM123.5 254C121.821 254.826 121.812 254.386 120.5 253C119.176 251.621 109.637 260.884 110.556 259.225L142.5 274C142.5 277 148.519 256.365 149.5 256C152.319 254.973 191 240.5 197.421 240.5L277.548 262.543C279.006 264.16 293.41 270.341 292 272C301.5 271 280.659 258.719 298.595 266.961C299 265.5 298.223 264.95 297.5 264.5C295.22 263.072 291.583 263.607 289.095 262.543C289.095 262.543 289.095 262.543 289.083 262.543C268.391 253.646 201.976 216.237 123.5 254Z" fill="white"/>
<path d="M195.131 129H163.128L151 165.177H165.486L154.369 193.846H164.138L155.716 229L178.287 194.87L187.383 229H246V129H233.872L233.535 216.713H197.152L187.383 180.195H173.234L185.025 160.058L199.848 213.642H229.83V129H214.333V204.085H211.301L195.131 129Z" fill="black"/>
<path d="M202.29 438.836L202.071 405.967C198.046 404.897 194.233 403.173 191.188 400.136C186.605 395.549 184.053 389.443 184.018 382.924C183.966 376.404 186.431 370.262 190.962 365.614C195.493 360.975 201.534 358.392 207.957 358.348C214.449 357.891 220.473 360.791 225.055 365.386C229.638 369.964 232.19 376.07 232.225 382.59C232.277 389.109 229.812 395.251 225.298 399.899C222.292 402.977 218.507 404.753 214.5 405.88L214.719 438.75L229.167 438.65L238.422 438.585L255 362.943C245.808 355.097 219.688 329.931 207.505 291C195.851 330.101 170.085 355.628 161 363.602L178.589 439L202.29 438.836Z" fill="white"/>
<path d="M39.7199 222.103V206.367C39.7199 203.403 37.3244 201 34.3599 201C31.3955 201 29 203.403 29 206.367V222.103C29 225.067 31.3955 227.47 34.3599 227.47C37.3244 227.47 39.7199 225.067 39.7199 222.103Z" fill="white"/>
<path d="M51.0729 260.416C49.7452 257.755 46.5099 256.694 43.8642 258.02C41.2185 259.345 40.149 262.574 41.4745 265.22L48.5158 279.279C49.5816 281.411 51.8856 282.523 54.1208 282.184C54.6684 282.1 55.2038 281.936 55.7245 281.675C58.3702 280.35 59.4397 277.121 58.1142 274.475L51.0729 260.416Z" fill="white"/>
<path d="M78.8688 303.14C76.9061 300.906 73.5478 300.678 71.2908 302.635C69.0629 304.583 68.8464 307.978 70.7935 310.205L81.1489 322.04C82.3238 323.384 84.019 324.003 85.674 323.852C86.7625 323.753 87.8352 323.317 88.7269 322.544C90.9548 320.597 91.1713 317.202 89.2242 314.974L78.8688 303.14Z" fill="white"/>
<path d="M120.535 337.441C117.928 335.982 114.672 336.901 113.216 339.47C111.761 342.046 112.66 345.319 115.236 346.782L128.924 354.533C129.954 355.109 131.093 355.319 132.179 355.196C133.83 355.008 135.365 354.058 136.243 352.504C137.698 349.928 136.8 346.655 134.223 345.192L120.535 337.441Z" fill="white"/>
<path d="M294.933 331.021L282.207 340.266C279.811 342.011 279.287 345.364 281.024 347.76C282.072 349.205 283.704 349.976 285.366 349.976C286.459 349.976 287.567 349.639 288.525 348.95L301.251 339.705C303.646 337.961 304.17 334.607 302.434 332.212C300.697 329.816 297.358 329.285 294.933 331.021Z" fill="white"/>
<path d="M330.277 298.196L321.024 310.922C319.287 313.325 319.811 316.679 322.207 318.423C323.165 319.112 324.273 319.449 325.366 319.449C327.013 319.449 328.66 318.677 329.708 317.24L338.96 304.514C340.697 302.111 340.173 298.757 337.777 297.013C335.382 295.291 332.013 295.815 330.277 298.196Z" fill="white"/>
<path d="M361.896 250.266C359.081 249.345 356.042 250.895 355.129 253.709L350.263 268.674C349.35 271.496 350.892 274.52 353.706 275.441C354.26 275.621 354.814 275.703 355.368 275.703C357.629 275.703 359.74 274.258 360.474 271.998L365.34 257.033C366.253 254.211 364.711 251.187 361.896 250.266Z" fill="white"/>
<path d="M369.454 197.338C366.493 197.28 364.04 199.651 363.989 202.609L363.711 218.343C363.663 221.308 366.022 223.75 368.982 223.807C369.565 223.817 370.119 223.734 370.648 223.572C372.81 222.911 374.407 220.912 374.447 218.536L374.726 202.803C374.774 199.837 372.415 197.395 369.454 197.338Z" fill="white"/>
<path d="M252.956 37.4163L267.928 42.2747C268.482 42.4544 269.036 42.5367 269.59 42.5367C271.851 42.5367 273.962 41.0919 274.696 38.8237C275.609 36.009 274.067 32.9771 271.252 32.0639L256.28 27.2055C253.451 26.3071 250.426 27.8343 249.513 30.6565C248.6 33.4712 250.142 36.503 252.956 37.4163Z" fill="white"/>
<path d="M366 25H237V38H366V25Z" fill="white"/>
<path d="M178 25H52V38H178V25Z" fill="white"/>
<path d="M42.6202 154L30 151.929C37.4701 106.973 57.5986 72.9415 89.8374 50.8635C122.561 28.4298 158.547 25 177.452 25H178V37.7031H177.49C160.102 37.7031 127.009 40.8281 97.18 61.3309C67.784 81.4018 49.4656 112.575 42.6202 154Z" fill="white"/>
<path d="M30.44 60.88C24.4196 60.88 18.5343 59.0947 13.5285 55.7499C8.52262 52.4052 4.62105 47.6511 2.31712 42.0889C0.0131893 36.5267 -0.589624 30.4062 0.58491 24.5015C1.75944 18.5967 4.65857 13.1728 8.91568 8.91568C13.1728 4.65857 18.5967 1.75944 24.5015 0.58491C30.4062 -0.589624 36.5267 0.0131893 42.0889 2.31712C47.6511 4.62105 52.4052 8.52262 55.75 13.5285C59.0947 18.5343 60.88 24.4196 60.88 30.44C60.8721 38.5108 57.6625 46.2487 51.9556 51.9556C46.2487 57.6625 38.5108 60.8721 30.44 60.88ZM30.44 10C26.3974 10 22.4455 11.1988 19.0842 13.4448C15.7228 15.6908 13.103 18.883 11.5559 22.618C10.0089 26.3529 9.60408 30.4627 10.3928 34.4277C11.1814 38.3926 13.1282 42.0347 15.9868 44.8933C18.8453 47.7519 22.4874 49.6986 26.4524 50.4873C30.4173 51.2759 34.5271 50.8712 38.2621 49.3241C41.997 47.7771 45.1893 45.1572 47.4353 41.7959C49.6812 38.4345 50.88 34.4827 50.88 30.44C50.8747 25.0206 48.7195 19.8247 44.8874 15.9926C41.0553 12.1605 35.8594 10.0053 30.44 10Z" fill="white"/>
<path d="M387.44 62.88C381.42 62.88 375.534 61.0947 370.528 57.7499C365.523 54.4052 361.621 49.6511 359.317 44.0889C357.013 38.5267 356.41 32.4062 357.585 26.5015C358.759 20.5967 361.659 15.1728 365.916 10.9157C370.173 6.65857 375.597 3.75944 381.501 2.58491C387.406 1.41038 393.527 2.01319 399.089 4.31712C404.651 6.62105 409.405 10.5226 412.75 15.5285C416.095 20.5343 417.88 26.4196 417.88 32.44C417.872 40.5108 414.662 48.2487 408.956 53.9556C403.249 59.6625 395.511 62.8721 387.44 62.88ZM387.44 12C383.397 12 379.445 13.1988 376.084 15.4448C372.723 17.6908 370.103 20.883 368.556 24.618C367.009 28.3529 366.604 32.4627 367.393 36.4277C368.181 40.3926 370.128 44.0347 372.987 46.8933C375.845 49.7519 379.487 51.6986 383.452 52.4873C387.417 53.2759 391.527 52.8712 395.262 51.3241C398.997 49.7771 402.189 47.1572 404.435 43.7959C406.681 40.4345 407.88 36.4827 407.88 32.44C407.875 27.0206 405.72 21.8247 401.887 17.9926C398.055 14.1605 392.859 12.0053 387.44 12Z" fill="white"/>
<path d="M50.8 204.14H20.34C16.5376 204.137 12.8917 202.626 10.203 199.937C7.51432 197.248 6.00265 193.602 6 189.8V159.34C6.00529 155.538 7.51781 151.894 10.2059 149.206C12.8941 146.518 16.5384 145.005 20.34 145H50.8C54.6016 145.005 58.2459 146.518 60.9341 149.206C63.6222 151.894 65.1347 155.538 65.14 159.34V189.8C65.1374 193.602 63.6257 197.248 60.937 199.937C58.2483 202.626 54.6024 204.137 50.8 204.14ZM20.34 155C19.188 155.003 18.0842 155.462 17.2705 156.278C16.4569 157.093 16 158.198 16 159.35V189.8C16.0026 190.95 16.4607 192.053 17.2741 192.866C18.0874 193.679 19.1898 194.137 20.34 194.14H50.8C51.951 194.14 53.0549 193.683 53.8688 192.869C54.6828 192.055 55.14 190.951 55.14 189.8V159.34C55.14 158.189 54.6828 157.085 53.8688 156.271C53.0549 155.457 51.951 155 50.8 155H20.34Z" fill="white"/>
<path d="M222.47 61.2301H192.01C188.208 61.2274 184.562 59.7158 181.873 57.0271C179.184 54.3384 177.673 50.6925 177.67 46.8901V16.4301C177.673 12.6268 179.184 8.97984 181.872 6.28955C184.561 3.59927 188.207 2.08537 192.01 2.08008H222.47C226.274 2.08537 229.921 3.59894 232.611 6.28894C235.301 8.97894 236.815 12.6258 236.82 16.4301V46.8901C236.815 50.6934 235.301 54.3393 232.61 57.0277C229.92 59.7161 226.273 61.2274 222.47 61.2301ZM192.01 12.0801C190.858 12.0827 189.754 12.5422 188.94 13.3577C188.127 14.1732 187.67 15.2781 187.67 16.4301V46.8901C187.673 48.0403 188.131 49.1427 188.944 49.956C189.757 50.7693 190.86 51.2274 192.01 51.2301H222.47C223.622 51.2301 224.727 50.7732 225.542 49.9595C226.358 49.1459 226.817 48.042 226.82 46.8901V16.4301C226.82 15.2764 226.362 14.1699 225.546 13.3542C224.73 12.5384 223.624 12.0801 222.47 12.0801H192.01Z" fill="white"/>
<path d="M386.8 201.14H356.35C352.547 201.137 348.9 199.626 346.209 196.938C343.519 194.249 342.005 190.603 342 186.8V156.34C342.005 152.537 343.519 148.891 346.209 146.202C348.9 143.514 352.547 142.003 356.35 142H386.8C390.603 142.003 394.25 143.514 396.941 146.202C399.631 148.891 401.145 152.537 401.15 156.34V186.8C401.145 190.603 399.631 194.249 396.941 196.938C394.25 199.626 390.603 201.137 386.8 201.14ZM356.35 152C355.198 152 354.093 152.457 353.278 153.271C352.462 154.084 352.003 155.188 352 156.34V186.8C352 187.371 352.113 187.936 352.331 188.463C352.55 188.99 352.871 189.469 353.275 189.872C353.679 190.276 354.158 190.595 354.686 190.813C355.214 191.03 355.779 191.141 356.35 191.14H386.8C387.371 191.141 387.936 191.03 388.464 190.813C388.992 190.595 389.471 190.276 389.875 189.872C390.279 189.469 390.6 188.99 390.819 188.463C391.037 187.936 391.15 187.371 391.15 186.8V156.34C391.147 155.188 390.688 154.084 389.872 153.271C389.057 152.457 387.952 152 386.8 152H356.35Z" fill="white"/>
<path d="M520.8 322.17H490.35C486.547 322.165 482.902 320.653 480.212 317.965C477.523 315.277 476.008 311.632 476 307.83V277.37C476 273.562 477.511 269.91 480.202 267.216C482.892 264.522 486.542 263.005 490.35 263H520.8C524.604 263.005 528.251 264.519 530.941 267.209C533.631 269.899 535.145 273.546 535.15 277.35V307.81C535.147 311.616 533.635 315.265 530.945 317.958C528.254 320.65 524.606 322.165 520.8 322.17ZM490.35 273C489.196 273 488.09 273.458 487.274 274.274C486.458 275.09 486 276.196 486 277.35V307.81C486.003 308.962 486.462 310.066 487.278 310.879C488.093 311.693 489.198 312.15 490.35 312.15H520.8C521.952 312.15 523.057 311.693 523.872 310.879C524.688 310.066 525.147 308.962 525.15 307.81V277.37C525.15 276.799 525.037 276.233 524.819 275.705C524.6 275.178 524.28 274.698 523.876 274.294C523.472 273.89 522.992 273.57 522.465 273.351C521.937 273.133 521.371 273.02 520.8 273.02L490.35 273Z" fill="white"/>
<path d="M364.683 152C357.815 111.256 339.961 80.7726 311.535 61.3789C285.859 43.8167 256.29 38.7989 236 37.5444L236.741 25C281.778 27.6594 359.887 47.4295 377 149.893L364.683 152Z" fill="white"/>
<path d="M482.646 301C452.418 300.073 427.58 293.093 408.818 280.248C383.386 262.83 368.981 234.764 366 196.813L376.423 196C381.187 256.735 417.073 288.561 483 290.582L482.646 301Z" fill="white"/>
</svg>
